<svg fill="none" height="24" viewBox="0 0 24 24" width="24" xmlns="http://www.w3.org/2000/svg"><g stroke="#222"><path d="m20.5 12.5h-2.5585c-.6957 0-1.0436 0-1.3055.1888-.2618.1887-.3718.5187-.5918 1.1787l-.0884.265c-.22.66-.33.99-.5918 1.1787-.2619.1888-.6098.1888-1.3055.1888h-4.11698c-.69572 0-1.04358 0-1.30547-.1888-.26189-.1887-.37189-.5187-.5919-1.1787l-.0883-.265c-.22001-.66-.33001-.99-.5919-1.1787-.26189-.1888-.60975-.1888-1.30547-.1888h-2.55848"/><path d="m9.5 9.5 2.5 2.5m0 0 2.5-2.5m-2.5 2.5v-7"/><path d="m6.5 8.5-1.71754 1.14502c-.46888.31259-.70332.46888-.87304.67538-.15025.1828-.26299.3935-.33175.6199-.07767.2557-.07767.5375-.07767 1.101v3.5787c0 1.0081 0 1.5121.19619 1.8972.17257.3387.44794.614.78663.7866.38504.1962.88909.1962 1.89718.1962h11.24c1.0081 0 1.5121 0 1.8972-.1962.3387-.1726.614-.4479.7866-.7866.1962-.3851.1962-.8891.1962-1.8972v-3.5787c0-.5635 0-.8453-.0777-1.101-.0687-.2264-.1815-.4371-.3317-.6199-.1697-.2065-.4042-.36279-.8731-.67538l-1.7175-1.14502" strokeLinecap="round"/></g></svg>