<svg fill="none" height="24" viewBox="0 0 24 24" width="24" xmlns="http://www.w3.org/2000/svg"><g stroke="#33363f" strokeWidth="2"><path d="m20 12v5c0 1.8856 0 2.8284-.5858 3.4142s-1.5286.5858-3.4142.5858h-9.5c-1.38071 0-2.5-1.1193-2.5-2.5 0-1.3807 1.11929-2.5 2.5-2.5h9.5c1.8856 0 2.8284 0 3.4142-.5858s.5858-1.5286.5858-3.4142v-5c0-1.88562 0-2.82843-.5858-3.41421-.5858-.58579-1.5286-.58579-3.4142-.58579h-8c-1.88562 0-2.82843 0-3.41421.58579-.58579.58578-.58579 1.52859-.58579 3.41421v11.5"/><path d="m9 10 1.2929 1.2929c.3905.3905 1.0237.3905 1.4142 0l3.2929-3.2929" strokeLinecap="round"/></g></svg>